<?xml version="1.0" encoding="utf-8"?>
<!-- Generator: Adobe Illustrator 25.1.0, SVG Export Plug-In . SVG Version: 6.00 Build 0)  -->
<svg version="1.1" id="Layer_1" xmlns="http://www.w3.org/2000/svg" xmlns:xlink="http://www.w3.org/1999/xlink" x="0px" y="0px"
	 viewBox="0 0 600 236.16" style="enable-background:new 0 0 600 236.16;" xml:space="preserve">
<style type="text/css">
	.st0{fill:#F2AF41;}
	.st1{fill:#FFFFFF;}
</style>
<g>
	<path class="st0" d="M347.39,236.16H581.8c10.05,0,18.19-8.14,18.19-18.19v-42.96c0-10.05-8.14-18.19-18.19-18.19H347.39
		c-10.05,0-18.19,8.14-18.19,18.19v42.96C329.2,228.02,337.34,236.16,347.39,236.16z"/>
	<g>
		<path class="st1" d="M455.4,174.09h8.92v8.11h-8.92V174.09z M464.26,218.9h-8.74v-32.83h8.74V218.9z"/>
		<path class="st1" d="M490.72,173.4c12.3,0,21.16,9.55,21.16,23.09s-8.86,23.09-21.16,23.09c-12.35,0-21.22-9.55-21.22-23.09
			S478.37,173.4,490.72,173.4z M490.72,181.45c-7.05,0-11.98,5.87-11.98,15.04s4.93,15.04,11.98,15.04
			c6.99,0,11.92-5.87,11.92-15.04S497.72,181.45,490.72,181.45z"/>
		<path class="st1" d="M519.32,204.61c3.31,4.68,8.11,7.3,13.04,7.3c4.68,0,8.11-2.06,8.11-5.87c0-4.12-4.24-4.68-10.98-6.18
			c-6.68-1.56-13.92-3.68-13.92-12.54c0-8.55,7.36-13.92,16.66-13.92c7.74,0,13.79,3.43,16.91,7.93l-6.05,5.93
			c-2.62-3.68-6.12-6.18-11.11-6.18c-4.37,0-7.36,2.12-7.36,5.37c0,3.49,3.24,4.18,9.11,5.49c7.11,1.56,15.85,3.37,15.85,13.17
			c0,9.05-7.99,14.48-17.54,14.48c-7.55,0-15.41-3.43-19.03-8.86L519.32,204.61z"/>
	</g>
	<g>
		<path d="M552.71,13.65L552.71,13.65c0,6.43-5.21,11.63-11.63,11.63h-40.9c-2.85,0-5.16,2.31-5.16,5.16v74.7
			c0,2.85,2.31,5.16,5.16,5.16h88.19c6.42,0,11.63,5.21,11.63,11.63v0c0,6.42-5.21,11.63-11.63,11.63h-99.51
			c-11.26,0-20.4-9.13-20.4-20.4V22.41c0-11.26,9.13-20.4,20.4-20.4h52.22C547.5,2.02,552.71,7.22,552.71,13.65z"/>
		<path d="M534.22,49.3L534.22,49.3c-10.21,0-18.48,8.28-18.48,18.48v0c0,10.21,8.28,18.48,18.48,18.48h0
			c10.21,0,18.48-8.28,18.48-18.48v0C552.71,57.58,544.43,49.3,534.22,49.3z"/>
		<path d="M3.68,100.86c4.63-4.5,11.95-4.48,16.67-0.07c8.62,8.06,19.03,12.25,30.04,12.25c13.74,0,23.82-6.05,23.82-17.22
			c0-12.09-12.46-13.74-32.24-18.14C22.35,73.1,1.1,66.87,1.1,40.85C1.1,15.76,22.72,0,50.02,0c16.57,0,30.11,5.3,40.23,13.1
			c5.82,4.48,6.27,13.1,0.99,18.21l0,0c-4.43,4.29-11.36,4.53-16.12,0.6c-7-5.78-15.3-9.38-25.84-9.38
			c-12.82,0-21.62,6.23-21.62,15.76c0,10.26,9.53,12.27,26.75,16.12c20.89,4.58,46.53,9.89,46.53,38.66
			c0,26.56-23.45,42.5-51.48,42.5c-17.4,0-34.13-6.72-45.67-17.32C-1.25,113.61-1.24,105.63,3.68,100.86L3.68,100.86z"/>
		<path d="M323.26,2.02L323.26,2.02c-7.13,0-12.92,5.78-12.92,12.92v64.54c0,2.65-3.44,3.69-4.91,1.49L258.18,10.3
			c-3.28-4.9-8.68-8.13-14.58-8.28c-10.04-0.26-18.26,7.8-18.26,17.79v85.33c0,2.85-2.31,5.16-5.16,5.16h-68.83
			c-2.85,0-5.16-2.31-5.16-5.16v-74.7c0-2.85,2.31-5.16,5.16-5.16l40.51,0c6.41,0,11.9-5.01,12.02-11.42
			c0.12-6.52-5.13-11.85-11.63-11.85h-54.87c-9.8,0-17.75,7.95-17.75,17.75v96.04c0,9.8,7.95,17.75,17.75,17.75h90.52
			c4.12,0,7.98-1.08,11.33-2.95c4.12-2.09,7.44-5.36,9.52-10.04c1.53-3.1,2.41-6.58,2.41-10.27V51.03c0-2.47,3.19-3.45,4.58-1.41
			l52.41,77.22c2.85,4.2,7.6,6.72,12.68,6.72h0c8.47,0,15.33-6.86,15.33-15.33V14.93C336.18,7.8,330.4,2.02,323.26,2.02z"/>
		<path d="M355.03,100.86c4.89-4.74,12.55-4.7,17.59-0.12c8.74,7.96,19.39,12.29,30.25,12.29c13.74,0,23.82-6.05,23.82-17.22
			c0-12.09-12.46-13.74-32.24-18.14c-19.6-4.58-40.85-10.81-40.85-36.82C353.58,15.76,375.2,0,402.5,0
			c16.5,0,30.39,5.32,40.27,13.28c5.72,4.61,6.08,13.22,0.83,18.36l0,0c-4.59,4.5-11.94,4.79-16.72,0.49
			c-6.61-5.95-14.76-9.6-25.1-9.6c-12.82,0-21.62,6.23-21.62,15.76c0,10.26,9.53,12.27,26.75,16.12
			c20.89,4.58,46.53,9.89,46.53,38.66c0,26.56-23.45,42.5-51.48,42.5c-16.86,0-34.25-5.83-46.29-15.63
			c-5.88-4.79-6.2-13.66-0.76-18.94L355.03,100.86z"/>
		<path d="M185.4,49.3L185.4,49.3c-10.21,0-18.48,8.28-18.48,18.48v0c0,10.21,8.28,18.48,18.48,18.48h0
			c10.21,0,18.48-8.28,18.48-18.48v0C203.89,57.58,195.61,49.3,185.4,49.3z"/>
		<path d="M588.36,2.02h-14.42c-6.42,0-11.63,5.21-11.63,11.63v0c0,6.43,5.21,11.63,11.63,11.63h14.42
			c6.42,0,11.63-5.21,11.63-11.63v0C599.99,7.22,594.78,2.02,588.36,2.02z"/>
	</g>
</g>
</svg>
